<svg width="8" height="10" viewBox="0 0 8 10" fill="none" xmlns="http://www.w3.org/2000/svg">
<path d="M1.11347 4.49999H6.88697C7.31797 4.49999 7.54697 3.98999 7.26047 3.66749L4.37397 0.419986C4.32715 0.367138 4.26965 0.324828 4.20526 0.295852C4.14088 0.266875 4.07108 0.251892 4.00047 0.251892C3.92987 0.251892 3.86007 0.266875 3.79568 0.295852C3.7313 0.324828 3.67379 0.367138 3.62697 0.419986L0.739472 3.66749C0.452972 3.98999 0.681972 4.49999 1.11347 4.49999ZM3.62647 9.57949C3.67329 9.63233 3.7308 9.67464 3.79518 9.70362C3.85957 9.7326 3.92937 9.74758 3.99997 9.74758C4.07058 9.74758 4.14038 9.7326 4.20476 9.70362C4.26915 9.67464 4.32665 9.63233 4.37347 9.57949L7.25997 6.33199C7.54697 6.00999 7.31797 5.49999 6.88647 5.49999H1.11347C0.682472 5.49999 0.453472 6.00999 0.739972 6.33249L3.62647 9.57949Z" fill="black"/>
</svg>
